<?xml version="1.0" encoding="UTF-8"?><svg id="Calque_2" xmlns="http://www.w3.org/2000/svg" viewBox="0 0 823.81 209.74"><g id="Calque_1-2"><path d="M115.36,48.24h-31.46v153.64H31.46V48.24H0V0h115.36v48.24Z" style="fill:#0f0d12;"/><path d="M116.87,199.19c-4.85-3.54-8.63-8.5-11.34-14.88-2.71-6.38-4.06-13.72-4.06-22.02,0-11.19,2.44-20.58,7.34-28.18,4.89-7.6,12.59-13.94,23.07-19.01l34.35-16.78v-9.96c0-4.02-.68-7.16-2.03-9.44-1.35-2.27-3.21-3.41-5.57-3.41-5.86,0-9.18,6.03-9.97,18.09l-45.09-7.34c2.18-10.66,5.99-19.93,11.4-27.79,5.42-7.87,12.14-13.9,20.19-18.09,8.04-4.19,16.91-6.29,26.61-6.29,10.75,0,20.34,2.49,28.77,7.47,8.43,4.98,15.01,11.91,19.73,20.78,4.72,8.87,7.08,18.94,7.08,30.22v109.33h-45.09l-1.05-25.17h-4.19c-3.41,8.83-8.06,15.67-13.96,20.52-5.9,4.85-12.44,7.28-19.6,7.28-6.2,0-11.73-1.77-16.58-5.31ZM153.12,160.39c1.22,2.14,2.97,3.21,5.24,3.21s4.3-1.2,5.83-3.61c1.53-2.4,2.29-5.48,2.29-9.24v-21.89c-2.01,1.75-4.54,3.63-7.6,5.64-5.07,3.5-7.6,9.09-7.6,16.78,0,3.93.61,6.97,1.84,9.11Z" style="fill:#0f0d12;"/><path d="M228.63,36.71h45.62l1.05,30.41h4.19c3.23-10.31,8.02-18.4,14.36-24.25,6.34-5.85,13.44-8.78,21.3-8.78,5.42,0,10.38,1.4,14.88,4.19,4.5,2.8,8.04,6.8,10.62,12,2.57,5.2,3.87,11.25,3.87,18.16v133.45h-51.39v-113c0-3.06-.53-5.35-1.57-6.88-1.05-1.53-2.54-2.29-4.46-2.29-2.1,0-3.8.98-5.11,2.95-1.31,1.97-1.97,4.57-1.97,7.8v111.43h-51.39V36.71Z" style="fill:#0f0d12;"/><path d="M417.13,77.8c-1.4-3.1-3.41-4.65-6.03-4.65-2.1,0-3.76.77-4.98,2.29-1.22,1.53-1.83,3.65-1.83,6.36,0,5.68,2.89,10.14,8.65,13.37l21.76,12.32c11.19,6.38,19.44,13.33,24.77,20.84,5.33,7.52,8,16.12,8,25.83s-2.45,18.37-7.34,26.02c-4.9,7.65-11.65,13.61-20.26,17.89s-18.37,6.42-29.3,6.42-20.52-2.27-29.04-6.82c-8.52-4.54-15.36-10.82-20.52-18.81-5.16-8-8.3-17.02-9.44-27.07l47.19-7.34c.52,7.43,1.55,12.78,3.08,16.06,1.53,3.28,3.82,4.92,6.88,4.92,2.36,0,4.26-.81,5.7-2.43,1.44-1.62,2.16-3.87,2.16-6.75,0-5.16-3.23-9.61-9.7-13.37l-21.76-12.32c-10.66-5.94-18.53-12.59-23.6-19.93-5.07-7.34-7.6-15.91-7.6-25.69s2.38-18.55,7.14-26.28c4.76-7.73,11.38-13.76,19.86-18.09,8.48-4.33,18.09-6.49,28.84-6.49s19.42,2.23,27.6,6.69c8.17,4.46,14.81,10.58,19.93,18.35,5.11,7.78,8.41,16.65,9.9,26.61l-47.19,7.34c-.52-7.08-1.49-12.17-2.89-15.27Z" style="fill:#0f0d12;"/><path d="M501.81,193.29c-9.26-7.47-16.52-17.7-21.76-30.68-5.24-12.98-7.87-27.42-7.87-43.33s2.62-30.35,7.87-43.33c5.24-12.98,12.5-23.2,21.76-30.68,9.26-7.47,19.67-11.21,31.2-11.21s21.93,3.74,31.2,11.21c9.26,7.47,16.52,17.7,21.76,30.68,5.24,12.98,7.87,27.42,7.87,43.33s-2.62,30.35-7.87,43.33c-5.24,12.98-12.5,23.2-21.76,30.68-9.27,7.47-19.67,11.21-31.2,11.21s-21.94-3.74-31.2-11.21ZM525.35,144.79c.48,6.16,1.33,10.66,2.56,13.5,1.22,2.84,2.93,4.26,5.11,4.26s3.89-1.42,5.11-4.26c1.22-2.84,2.07-7.34,2.56-13.5.48-6.16.72-14.66.72-25.5s-.24-19.34-.72-25.5c-.48-6.16-1.33-10.66-2.56-13.5-1.23-2.84-2.93-4.26-5.11-4.26s-3.89,1.42-5.11,4.26c-1.22,2.84-2.08,7.34-2.56,13.5-.48,6.16-.72,14.66-.72,25.5s.24,19.34.72,25.5Z" style="fill:#0f0d12;"/><path d="M623.73,200.13c-1.09-1.17-1.9-2.79-2.44-4.87h-.9l-.22,6.06h-9.77v-44.92h11v9.55l-.45,5.28h.9c.43-1.83,1.14-3.27,2.12-4.3.98-1.03,2.15-1.54,3.5-1.54,1.67,0,3.15.8,4.45,2.39,1.3,1.59,2.31,3.78,3.02,6.55.71,2.78,1.07,5.88,1.07,9.31s-.36,6.53-1.07,9.31-1.72,4.96-3.02,6.56c-1.3,1.59-2.78,2.39-4.45,2.39-1.41,0-2.65-.58-3.74-1.75ZM621.6,190.75c.28,1.43.74,2.15,1.38,2.15s1.1-.72,1.38-2.15c.28-1.43.42-3.8.42-7.12s-.14-5.69-.42-7.12c-.28-1.43-.74-2.15-1.38-2.15s-1.09.72-1.38,2.15-.42,3.8-.42,7.12.14,5.69.42,7.12Z" style="fill:#a238ff;"/><path d="M638.41,202.44h7.24c.73,0,1.27-.15,1.63-.46.35-.31.6-.87.73-1.67l.37-2.36h-7.66c-1.83-10.22-3.28-20.89-4.32-32h11.06c.11,8.44.56,16.9,1.35,25.38h.9c.79-8.48,1.23-16.94,1.35-25.38h10.84c-1.01,10.35-2.64,21.94-4.88,34.75-.39,2.21-1.01,3.97-1.84,5.29-.83,1.32-1.93,2.27-3.3,2.86s-3.1.88-5.19.88h-8.25v-7.3Z" style="fill:#a238ff;"/><path d="M675.85,199.5c-1.3-1.59-2.31-3.78-3.02-6.56-.71-2.78-1.07-5.88-1.07-9.31s.35-6.53,1.07-9.31c.71-2.78,1.72-4.96,3.02-6.55,1.3-1.59,2.78-2.39,4.45-2.39,1.35,0,2.51.52,3.5,1.54.98,1.03,1.69,2.46,2.12,4.3h.9l-.45-5.28v-9.55h11v44.92h-9.77l-.22-6.06h-.9c-.54,2.08-1.36,3.7-2.44,4.87-1.09,1.17-2.33,1.75-3.74,1.75-1.67,0-3.15-.8-4.45-2.39ZM683.41,190.75c.28,1.43.74,2.15,1.38,2.15s1.1-.72,1.38-2.15c.28-1.43.42-3.8.42-7.12s-.14-5.69-.42-7.12c-.28-1.43-.74-2.15-1.38-2.15s-1.09.72-1.38,2.15-.42,3.8-.42,7.12.14,5.69.42,7.12Z" style="fill:#a238ff;"/><path d="M705.75,199.48c-2.01-1.6-3.59-3.79-4.75-6.57-1.15-2.78-1.72-5.87-1.72-9.28s.56-6.5,1.68-9.28c1.12-2.78,2.67-4.97,4.63-6.57,1.97-1.6,4.16-2.4,6.6-2.4s4.69.8,6.65,2.4c1.97,1.6,3.5,3.79,4.61,6.57,1.1,2.78,1.66,5.87,1.66,9.28v2.75h-14.6c.08,2.34.28,4.03.62,5.07.34,1.04.84,1.56,1.52,1.56,1.14,0,1.85-1.29,2.13-3.87l9.66,1.57c-.56,2.23-1.41,4.18-2.54,5.87-1.13,1.68-2.5,2.99-4.1,3.92-1.6.93-3.36,1.39-5.26,1.39-2.51,0-4.77-.8-6.78-2.4ZM714.21,180.1c-.08-2.13-.26-3.66-.55-4.58s-.74-1.38-1.36-1.38-1.07.46-1.36,1.38-.47,2.44-.55,4.58h3.82Z" style="fill:#a238ff;"/><path d="M732.92,199.48c-2.01-1.6-3.59-3.79-4.75-6.57-1.15-2.78-1.72-5.87-1.72-9.28s.56-6.5,1.68-9.28c1.12-2.78,2.67-4.97,4.63-6.57,1.97-1.6,4.16-2.4,6.6-2.4s4.69.8,6.65,2.4c1.97,1.6,3.5,3.79,4.61,6.57,1.1,2.78,1.66,5.87,1.66,9.28v2.75h-14.6c.08,2.34.28,4.03.62,5.07.34,1.04.84,1.56,1.52,1.56,1.14,0,1.85-1.29,2.13-3.87l9.66,1.57c-.56,2.23-1.41,4.18-2.54,5.87-1.13,1.68-2.5,2.99-4.1,3.92-1.6.93-3.36,1.39-5.26,1.39-2.51,0-4.77-.8-6.78-2.4ZM741.39,180.1c-.08-2.13-.26-3.66-.55-4.58s-.74-1.38-1.36-1.38-1.07.46-1.36,1.38-.47,2.44-.55,4.58h3.82Z" style="fill:#a238ff;"/><path d="M760.36,174.03h-7.53v-8.09h19.88v6.4c-3.07,6.81-5.78,13.77-8.14,20.89h8.14v8.09h-20.1v-6.4c2.17-6.96,4.75-13.92,7.75-20.89Z" style="fill:#a238ff;"/><path d="M779.3,199.48c-2.01-1.6-3.59-3.79-4.75-6.57-1.15-2.78-1.72-5.87-1.72-9.28s.56-6.5,1.68-9.28c1.12-2.78,2.67-4.97,4.63-6.57,1.97-1.6,4.16-2.4,6.6-2.4s4.69.8,6.65,2.4c1.97,1.6,3.5,3.79,4.61,6.57,1.1,2.78,1.66,5.87,1.66,9.28v2.75h-14.6c.08,2.34.28,4.03.62,5.07.34,1.04.84,1.56,1.52,1.56,1.14,0,1.85-1.29,2.13-3.87l9.66,1.57c-.56,2.23-1.41,4.18-2.54,5.87-1.13,1.68-2.5,2.99-4.1,3.92-1.6.93-3.36,1.39-5.26,1.39-2.51,0-4.77-.8-6.78-2.4ZM787.76,180.1c-.08-2.13-.26-3.66-.55-4.58s-.74-1.38-1.36-1.38-1.07.46-1.36,1.38-.47,2.44-.55,4.58h3.82Z" style="fill:#a238ff;"/><path d="M800.56,165.95h9.77l.22,6.51h.9c.69-2.21,1.65-3.92,2.88-5.14,1.23-1.22,2.59-1.82,4.08-1.82,1.03,0,1.96.29,2.78.87.82.58,1.46,1.39,1.92,2.41.46,1.03.69,2.2.69,3.51v10.72l-9.66.9v-6.79c0-.65-.1-1.15-.31-1.47-.21-.33-.5-.49-.87-.49-.43,0-.77.21-1.02.63-.25.42-.38.98-.38,1.67v23.86h-11v-35.37Z" style="fill:#a238ff;"/></g></svg>